<?xml version="1.0" standalone="no"?>
<!DOCTYPE svg PUBLIC "-//W3C//DTD SVG 20010904//EN"
 "http://www.w3.org/TR/2001/REC-SVG-20010904/DTD/svg10.dtd">
<svg version="1.0" xmlns="http://www.w3.org/2000/svg"
 width="310.000000pt" height="304.000000pt" viewBox="0 0 310.000000 304.000000"
 preserveAspectRatio="xMidYMid meet">
<metadata>
Created by potrace 1.16, written by Peter Selinger 2001-2019
</metadata>
<g transform="translate(0.000000,304.000000) scale(0.100000,-0.100000)"
fill="#000000" stroke="none">
<path d="M2252 2414 l-22 -15 0 -530 0 -529 -153 0 -152 0 -184 493 c-101 270
-190 504 -198 520 l-14 27 -397 0 c-296 0 -401 -3 -410 -12 -9 -9 -12 -137
-12 -514 l0 -501 -130 -216 c-71 -118 -130 -226 -130 -239 0 -30 17 -48 47
-48 26 0 37 16 199 284 l90 151 206 3 206 2 42 -125 c27 -81 48 -129 60 -135
10 -6 81 -10 158 -10 l139 0 154 110 154 110 162 0 163 0 0 -224 c0 -191 2
-227 16 -240 23 -23 265 -23 288 0 21 21 20 40 -4 64 -17 17 -33 20 -110 20
l-90 0 0 769 c0 686 -2 771 -16 785 -19 20 -34 20 -62 0z m-656 -484 c74 -195
134 -358 134 -362 0 -5 -35 -8 -79 -8 l-78 0 -33 85 c-18 47 -31 87 -29 88 79
54 97 85 67 115 -22 22 -55 12 -159 -50 -133 -78 -141 -85 -137 -121 4 -44 36
-52 92 -22 l44 24 42 -104 c23 -57 48 -106 57 -109 8 -3 68 -6 133 -6 65 0
121 -4 124 -8 2 -4 16 -38 30 -74 l25 -66 -44 -34 c-24 -18 -84 -61 -134 -96
l-90 -63 -102 3 -102 3 -38 114 c-21 62 -43 119 -50 127 -9 11 -56 14 -240 14
l-229 0 0 455 0 455 332 -2 331 -3 133 -355z"/>
<path d="M650 952 c-40 -67 -70 -129 -70 -144 0 -24 101 -207 138 -250 13 -16
35 -18 167 -18 132 0 154 2 167 18 21 24 135 215 142 239 4 13 -17 58 -69 146
l-76 127 -164 0 -164 0 -71 -118z m382 -50 c26 -43 48 -83 50 -89 2 -6 -19
-47 -46 -92 l-49 -81 -101 0 -101 0 -51 84 -51 83 51 86 51 86 100 1 100 0 47
-78z"/>
<path d="M1696 1018 c-68 -109 -116 -195 -116 -209 0 -18 136 -251 153 -261
21 -14 301 -9 319 5 23 18 148 234 148 255 0 17 -110 211 -139 246 -11 13 -40
16 -172 16 l-159 0 -34 -52z m345 -124 c51 -85 52 -87 35 -113 -9 -14 -31 -52
-49 -84 l-32 -57 -105 2 -104 3 -49 82 -49 82 52 86 51 85 99 0 99 0 52 -86z"/>
<path d="M1252 844 c-26 -18 -28 -46 -6 -68 12 -13 40 -16 144 -16 122 0 130
1 144 22 20 29 20 34 -4 58 -18 18 -33 20 -138 20 -90 0 -123 -4 -140 -16z"/>
</g>
</svg>
